<svg width="866" height="557" viewBox="0 0 866 557" fill="none" xmlns="http://www.w3.org/2000/svg">
<rect width="856" height="540" rx="31.7" fill="#5F3BFF"/>
<rect opacity="0.6" width="855" height="540" rx="31.7" fill="url(#paint0_linear_5394_42407)"/>
<path d="M557.798 179.298L561.22 139.062L565.744 192.184C571.626 198.509 581.764 209.162 586.908 213.131C589.378 215.047 598.083 219.782 598.083 219.782H589.014V223.243H587.453V229.433H583.507V243.852H589.025V247.538H585.892V251.766L593.164 258.35L583.507 259.455V276.895H589.025V280.581H587.464V284.809L593.164 291.393L583.507 292.498V309.938H589.025V313.625H587.464V317.852L604.596 327.491L600.104 327.999V354.481H598.564V328.179L594.768 328.608V354.481H591.132V329.025L588.351 329.34V354.481H571.048V342.305C571.048 336.522 566.599 331.832 561.113 331.832C555.627 331.832 551.178 336.522 551.178 342.305V354.481H534.142V328.664L531.362 328.348V354.481H527.726V327.931L523.93 327.503V354.481H522.39V327.322L517.898 326.815L535.03 317.852V313.625H533.469V309.938H538.987V291.991L529.33 290.886L535.03 284.809V280.581H533.469V276.895H538.987V258.947L529.33 257.842L533.469 251.766V243.852H538.987V229.433H535.041V223.243H533.479V219.782H524.411C524.411 219.782 533.683 214.551 536.335 212.477C541.265 208.61 551.007 198.351 556.75 192.184M557.007 188.588L557.253 185.668M556.386 309.95H566.054V300.626C566.054 297.808 563.894 295.53 561.22 295.53C558.547 295.53 556.386 297.808 556.386 300.626V309.95ZM556.386 276.895H566.054V267.572C566.054 264.753 563.894 262.476 561.22 262.476C558.547 262.476 556.386 264.753 556.386 267.572V276.895ZM556.386 243.852H566.054V234.528C566.054 231.71 563.894 229.433 561.22 229.433C558.547 229.433 556.386 231.71 556.386 234.528V243.852Z" stroke="white" stroke-width="1.49793" stroke-linecap="round" stroke-linejoin="round"/>
<path d="M589.025 219.779C589.025 219.779 557.264 220.726 533.437 219.779" stroke="white" stroke-width="1.49793" stroke-linecap="round" stroke-linejoin="round"/>
<path d="M583.506 259.454C583.506 259.454 557.262 261.19 538.943 258.946" stroke="white" stroke-width="1.49793" stroke-linecap="round" stroke-linejoin="round"/>
<path d="M585.889 251.765C585.889 251.765 560.394 254.143 533.423 251.765" stroke="white" stroke-width="1.49793" stroke-linecap="round" stroke-linejoin="round"/>
<path d="M574.672 285.37C564.748 285.776 550.097 285.945 534.986 284.604" stroke="white" stroke-width="1.49793" stroke-linecap="round" stroke-linejoin="round"/>
<path d="M579.625 285.055C578.951 285.1 578.235 285.133 577.475 285.178" stroke="white" stroke-width="1.49793" stroke-linecap="round" stroke-linejoin="round"/>
<path d="M587.451 284.594C587.451 284.594 585.879 284.74 583.12 284.92" stroke="white" stroke-width="1.49793" stroke-linecap="round" stroke-linejoin="round"/>
<path d="M583.506 292.589C583.506 292.589 557.262 294.326 538.943 292.082" stroke="white" stroke-width="1.49793" stroke-linecap="round" stroke-linejoin="round"/>
<path d="M452.277 386.902H451.154" stroke="white" stroke-width="1.49793" stroke-linecap="round" stroke-linejoin="round"/>
<path d="M451.187 389.371V396.936H535.928V386.902H455.379" stroke="white" stroke-width="1.49793" stroke-linecap="round" stroke-linejoin="round"/>
<path d="M470.084 386.474C464.63 369.169 461.272 345.878 461.272 320.196C461.272 266.815 475.731 223.535 493.558 223.535C511.385 223.535 525.844 266.815 525.844 320.196C525.844 345.878 522.486 369.169 517.032 386.474H470.084Z" stroke="white" stroke-width="1.49793" stroke-linecap="round" stroke-linejoin="round"/>
<path d="M518.615 259.218H493.559H475.913" stroke="white" stroke-width="1.49793" stroke-linecap="round" stroke-linejoin="round"/>
<path d="M473.795 259.218H472.083" stroke="white" stroke-width="1.49793" stroke-linecap="round" stroke-linejoin="round"/>
<path d="M493.557 259.218C493.557 259.218 488.263 278.18 478.178 297.041C468.094 315.902 462.747 321.776 461.356 327.243" stroke="white" stroke-width="1.49793" stroke-linecap="round" stroke-linejoin="round"/>
<path d="M481.035 314.65C480.041 316.511 479.1 318.235 478.191 319.848" stroke="white" stroke-width="1.49793" stroke-linecap="round" stroke-linejoin="round"/>
<path d="M496.402 276.824C496.402 276.824 495.803 278.966 494.627 282.529" stroke="white" stroke-width="1.49793" stroke-linecap="round" stroke-linejoin="round"/>
<path d="M525.523 334.14C517.92 350.193 508.98 366.146 497.943 379.832" stroke="white" stroke-width="1.49793" stroke-linecap="round" stroke-linejoin="round"/>
<path d="M520.484 266.193C520.484 266.193 515.351 292.506 494.808 325.448C476.788 354.354 468.062 358.92 465.409 367.589" stroke="white" stroke-width="1.49793" stroke-linecap="round" stroke-linejoin="round"/>
<path d="M508.816 310.838C506.047 316.249 502.838 321.988 499.117 327.951C498.186 329.44 497.277 330.871 496.4 332.235" stroke="white" stroke-width="1.49793" stroke-linecap="round" stroke-linejoin="round"/>
<path d="M503.43 381.018C503.216 381.288 503.013 381.559 502.799 381.829" stroke="white" stroke-width="1.49793" stroke-linecap="round" stroke-linejoin="round"/>
<path d="M510.336 371.651C508.582 374.154 506.732 376.702 504.754 379.284" stroke="white" stroke-width="1.49793" stroke-linecap="round" stroke-linejoin="round"/>
<path d="M515.973 363.221C515.427 364.078 514.871 364.934 514.304 365.802" stroke="white" stroke-width="1.49793" stroke-linecap="round" stroke-linejoin="round"/>
<path d="M516.893 293.228C515.951 295.539 514.925 297.985 513.77 300.533" stroke="white" stroke-width="1.49793" stroke-linecap="round" stroke-linejoin="round"/>
<path d="M473.795 251.507H503.236" stroke="white" stroke-width="1.49793" stroke-linecap="round" stroke-linejoin="round"/>
<path d="M506.089 247.659H508.816" stroke="white" stroke-width="1.49793" stroke-linecap="round" stroke-linejoin="round"/>
<path d="M797.486 325.425V333.565H775.98V338.086M709.408 338.086V333.565H686.919V325.425C686.919 325.425 703.291 327.703 708.777 328.03C708.981 328.041 709.205 328.052 709.408 328.063V318.165H686.651V311.841H678.973V304.242C674.449 303.385 672.064 302.765 671.979 302.743L670.61 297.658C670.888 297.726 698.479 304.287 743.298 304.287C788.118 304.287 812.543 298.628 812.789 298.571L811.399 303.656C811.11 303.723 809.142 304.231 805.421 304.907V311.829H797.742V318.154H775.98V328.007C780.001 327.736 789.016 326.564 793.999 325.888M768.654 338.086V333.565H716.734V338.086M768.654 318.165H746.72V328.774C754.581 328.74 762.238 328.605 768.654 328.368V318.165ZM716.734 328.402C722.937 328.616 730.209 328.74 737.673 328.774V318.165H716.734V328.39V328.402Z" stroke="white" stroke-width="1.49793" stroke-linecap="round" stroke-linejoin="round"/>
<path d="M805.422 304.921C805.422 304.921 726.445 314.301 678.974 304.233" stroke="white" stroke-width="1.49793" stroke-linecap="round" stroke-linejoin="round"/>
<path d="M797.742 311.845H686.651" stroke="white" stroke-width="1.49793" stroke-linecap="round" stroke-linejoin="round"/>
<path d="M775.917 339.836V392.856H781.574V396.937H762.196V392.856H764.014" stroke="white" stroke-width="1.49793" stroke-linecap="round" stroke-linejoin="round"/>
<path d="M767.863 392.856V344.21" stroke="white" stroke-width="1.49793" stroke-linecap="round" stroke-linejoin="round"/>
<path d="M779.553 338.955H765.084" stroke="white" stroke-width="1.49793" stroke-linecap="round" stroke-linejoin="round"/>
<path d="M721.249 392.856H723.057V396.937H703.679V392.856H709.347V339.836" stroke="white" stroke-width="1.49793" stroke-linecap="round" stroke-linejoin="round"/>
<path d="M717.398 344.21V392.856" stroke="white" stroke-width="1.49793" stroke-linecap="round" stroke-linejoin="round"/>
<path d="M705.709 338.955H720.168" stroke="white" stroke-width="1.49793" stroke-linecap="round" stroke-linejoin="round"/>
<path d="M727.525 396.939L638.539 268.125L549.564 396.939H727.525Z" stroke="white" stroke-width="1.49793" stroke-linecap="round" stroke-linejoin="round"/>
<path d="M698.523 396.937L644.133 283.975" stroke="white" stroke-width="1.49793" stroke-linecap="round" stroke-linejoin="round"/>
<path d="M643.125 282.19L640.815 276.981" stroke="white" stroke-width="1.49793" stroke-linecap="round" stroke-linejoin="round"/>
<path d="M558.334 384.23H657.416" stroke="white" stroke-width="1.49793" stroke-linecap="round" stroke-linejoin="round"/>
<path d="M660.613 384.23H667.971" stroke="white" stroke-width="1.49793" stroke-linecap="round" stroke-linejoin="round"/>
<path d="M685.164 375.754H641.756" stroke="white" stroke-width="1.49793" stroke-linecap="round" stroke-linejoin="round"/>
<path d="M637.244 375.754H633.694" stroke="white" stroke-width="1.49793" stroke-linecap="round" stroke-linejoin="round"/>
<path d="M593.141 353.806H654.686" stroke="white" stroke-width="1.49793" stroke-linecap="round" stroke-linejoin="round"/>
<path d="M658.718 353.806H660.611" stroke="white" stroke-width="1.49793" stroke-linecap="round" stroke-linejoin="round"/>
<path d="M659.668 332.533H609.031" stroke="white" stroke-width="1.49793" stroke-linecap="round" stroke-linejoin="round"/>
<path d="M606.66 332.533H594.052" stroke="white" stroke-width="1.49793" stroke-linecap="round" stroke-linejoin="round"/>
<path d="M609.001 312.001H651.094" stroke="white" stroke-width="1.49793" stroke-linecap="round" stroke-linejoin="round"/>
<path d="M653.263 311.909H654.686" stroke="white" stroke-width="1.49793" stroke-linecap="round" stroke-linejoin="round"/>
<path d="M641.289 300.819H623.911" stroke="white" stroke-width="1.49793" stroke-linecap="round" stroke-linejoin="round"/>
<path d="M621.717 300.819H618.637" stroke="white" stroke-width="1.49793" stroke-linecap="round" stroke-linejoin="round"/>
<path d="M612.348 366.441H570.619" stroke="white" stroke-width="1.49793" stroke-linecap="round" stroke-linejoin="round"/>
<path d="M621.289 396.93L562.856 312.344L504.434 396.93H621.289Z" stroke="white" stroke-width="1.49793" stroke-linecap="round" stroke-linejoin="round"/>
<path d="M602.242 396.933L567.347 324.443" stroke="white" stroke-width="1.49793" stroke-linecap="round" stroke-linejoin="round"/>
<path d="M565.445 320.624L564.355 318.178" stroke="white" stroke-width="1.49793" stroke-linecap="round" stroke-linejoin="round"/>
<path d="M510.197 388.593H575.25" stroke="white" stroke-width="1.49793" stroke-linecap="round" stroke-linejoin="round"/>
<path d="M577.357 388.593H582.18" stroke="white" stroke-width="1.49793" stroke-linecap="round" stroke-linejoin="round"/>
<path d="M593.473 383.02H564.973" stroke="white" stroke-width="1.49793" stroke-linecap="round" stroke-linejoin="round"/>
<path d="M562.014 383.02H559.682" stroke="white" stroke-width="1.49793" stroke-linecap="round" stroke-linejoin="round"/>
<path d="M529.628 368.61H570.041" stroke="white" stroke-width="1.49793" stroke-linecap="round" stroke-linejoin="round"/>
<path d="M572.684 368.61H573.936" stroke="white" stroke-width="1.49793" stroke-linecap="round" stroke-linejoin="round"/>
<path d="M576.729 354.638H547.031" stroke="white" stroke-width="1.49793" stroke-linecap="round" stroke-linejoin="round"/>
<path d="M541.926 354.638H533.648" stroke="white" stroke-width="1.49793" stroke-linecap="round" stroke-linejoin="round"/>
<path d="M543.477 341.094H564.973" stroke="white" stroke-width="1.49793" stroke-linecap="round" stroke-linejoin="round"/>
<path d="M567.966 341.094H568.896" stroke="white" stroke-width="1.49793" stroke-linecap="round" stroke-linejoin="round"/>
<path d="M565.807 333.825H554.396" stroke="white" stroke-width="1.49793" stroke-linecap="round" stroke-linejoin="round"/>
<path d="M551.82 333.825H549.788" stroke="white" stroke-width="1.49793" stroke-linecap="round" stroke-linejoin="round"/>
<path d="M545.658 376.909H518.26" stroke="white" stroke-width="1.49793" stroke-linecap="round" stroke-linejoin="round"/>
<path d="M348.876 329.339V335.314H352.854L353.988 329.136L366.831 328.741L372.873 303.048H379.301L391.396 276.961C391.396 276.961 422.944 280.343 447.508 303.048V341.368C448.503 341.492 449.39 341.616 450.16 341.717L452.139 341.988V351.661L449.572 351.311C448.963 351.232 448.257 351.131 447.508 351.029V372.404C448.503 372.528 449.39 372.652 450.16 372.754L452.139 373.024V382.697L449.572 382.348C448.963 382.269 448.257 382.167 447.508 382.066V397.082H318.536L318.397 381.581C318.376 379.349 316.654 377.545 314.537 377.545C313.082 377.545 311.906 378.785 311.906 380.318V397.082H309.307L309.168 382.449C309.147 380.048 307.286 378.109 305.008 378.109C303.939 378.109 303.062 379.022 303.062 380.161V397.082H301.436L301.319 381.085C301.308 379.439 300.035 378.109 298.474 378.109C297.608 378.109 296.902 378.853 296.902 379.766V397.082H295.426L295.33 380.724C295.33 379.281 294.207 378.12 292.838 378.12C292.175 378.12 291.63 378.695 291.63 379.394V397.094H289.619L289.534 380.758C289.534 379.958 288.913 379.315 288.154 379.315C287.267 379.315 286.539 380.07 286.539 381.017V397.094H284.882L284.807 381.942C284.807 381.153 284.197 380.521 283.449 380.521C282.7 380.521 282.091 381.164 282.091 381.953V397.094H280.091V343.882C280.091 343.882 304.655 329.372 348.865 329.372L348.876 329.339ZM384.391 318.099C381.675 318.099 379.472 320.421 379.472 323.285V336.757C382.819 336.802 386.091 336.87 389.3 336.96V323.285C389.3 320.421 387.097 318.099 384.38 318.099H384.391ZM397.93 302.744L394.155 301.526V307.749L397.93 308.696V302.744ZM396.336 319.632C393.941 319.632 391.995 321.684 391.995 324.209V337.039C394.968 337.14 397.866 337.253 400.678 337.388V324.22C400.678 321.695 398.732 319.643 396.336 319.643V319.632ZM410.346 294.909L406.571 293.466V300.85L410.346 301.977V294.909ZM408.293 322.326C406.207 322.326 404.518 324.108 404.518 326.306V337.568C407.105 337.704 409.629 337.85 412.068 338.008V326.295C412.068 324.096 410.378 322.315 408.293 322.315V322.326ZM420.505 310.433L417.671 309.587V313.905L420.505 314.559V310.421V310.433ZM417.971 325.032C416.206 325.032 414.773 326.543 414.773 328.403V338.2C416.976 338.358 419.126 338.515 421.179 338.673V328.403C421.179 326.543 419.746 325.032 417.981 325.032H417.971ZM427.82 303.432L424.943 302.169V308.606L427.82 309.587V303.432ZM427.649 327.727C426.195 327.727 425.018 328.967 425.018 330.5V338.989C426.847 339.147 428.601 339.305 430.28 339.462V330.5C430.28 328.967 429.103 327.727 427.649 327.727ZM434.13 332.597V339.846C435.573 339.992 436.942 340.139 438.258 340.274V332.597C438.258 331.402 437.338 330.421 436.194 330.421C435.049 330.421 434.13 331.39 434.13 332.597ZM438.546 311.278L436.087 310.241V315.551L438.546 316.363V311.278ZM443.947 334.694C443.947 333.826 443.284 333.127 442.46 333.127C441.637 333.127 440.974 333.826 440.974 334.694V340.579C442.033 340.703 443.017 340.815 443.958 340.928V334.694H443.947ZM358.115 367.917C361.431 367.838 364.714 367.782 367.943 367.759V355.911C367.943 353.047 365.74 350.725 363.024 350.725C360.308 350.725 358.105 353.047 358.105 355.911V367.917H358.115ZM429.21 370.386V361.153C429.21 359.473 427.916 358.12 426.334 358.12C424.751 358.12 423.457 359.485 423.457 361.153V369.89C425.457 370.059 427.382 370.228 429.221 370.398L429.21 370.386ZM419.564 369.575V360.274C419.564 358.402 418.12 356.88 416.345 356.88C414.57 356.88 413.126 358.402 413.126 360.274V369.112C415.34 369.259 417.49 369.417 419.564 369.575ZM409.929 368.909V359.406C409.929 357.331 408.335 355.652 406.368 355.652C404.4 355.652 402.806 357.331 402.806 359.406V368.515C405.245 368.639 407.619 368.774 409.929 368.909ZM400.283 368.391V358.526C400.283 356.26 398.539 354.411 396.379 354.411C394.219 354.411 392.476 356.249 392.476 358.526V368.075C395.139 368.165 397.737 368.267 400.272 368.391H400.283ZM389.503 367.985V357.647C389.503 355.178 387.61 353.183 385.268 353.183C382.926 353.183 381.033 355.178 381.033 357.647V367.793C383.91 367.838 386.733 367.895 389.503 367.974V367.985ZM369.569 367.748C372.67 367.737 375.718 367.748 378.723 367.782V356.79C378.723 354.13 376.67 351.965 374.146 351.965C371.622 351.965 369.569 354.13 369.569 356.79V367.759V367.748ZM439.541 362.901V371.311H443.947V362.901C443.947 361.615 442.963 360.578 441.744 360.578C440.525 360.578 439.541 361.615 439.541 362.901ZM437.712 362.021C437.712 360.544 436.579 359.338 435.167 359.338C433.755 359.338 432.622 360.533 432.622 362.021V370.713C434.418 370.894 436.108 371.063 437.712 371.232V362.021ZM439.541 394.738H443.947V386.327C443.947 385.042 442.963 384.005 441.744 384.005C440.525 384.005 439.541 385.042 439.541 386.327V394.738ZM432.633 394.738H437.723V386.102C437.723 384.625 436.589 383.419 435.178 383.419C433.766 383.419 432.633 384.614 432.633 386.102V394.738ZM423.446 394.738H429.21V385.876C429.21 384.197 427.916 382.844 426.334 382.844C424.751 382.844 423.457 384.208 423.457 385.876V394.738H423.446ZM413.126 394.738H419.564V385.651C419.564 383.779 418.12 382.258 416.345 382.258C414.57 382.258 413.126 383.779 413.126 385.651V394.738ZM402.806 394.738H409.929V385.425C409.929 383.351 408.335 381.671 406.368 381.671C404.4 381.671 402.806 383.351 402.806 385.425V394.738ZM392.487 394.738H400.283V385.2C400.283 382.934 398.539 381.085 396.379 381.085C394.219 381.085 392.476 382.923 392.476 385.2V394.738H392.487ZM381.033 394.738H389.503V384.974C389.503 382.506 387.61 380.51 385.268 380.51C382.926 380.51 381.033 382.506 381.033 384.974V394.738ZM369.569 394.738H378.723V384.749C378.723 382.088 376.67 379.924 374.146 379.924C371.622 379.924 369.569 382.088 369.569 384.749V394.738ZM358.115 394.738H367.943V384.524C367.943 381.66 365.74 379.338 363.024 379.338C360.308 379.338 358.105 381.66 358.105 384.524V394.738H358.115ZM329.209 332.743L325.017 333.07V340.477L329.209 340.173V332.732V332.743ZM322.589 371.818H330.899V356.159C330.899 353.735 329.038 351.773 326.739 351.773C324.439 351.773 322.579 353.735 322.579 356.159V371.818H322.589ZM317.307 337.929L314.665 338.11V342.225L317.307 342.055V337.918V337.929ZM310.034 371.942H318.344V357.388C318.344 354.964 316.483 353.002 314.184 353.002C311.885 353.002 310.024 354.964 310.024 357.388V371.942H310.034ZM308.869 341.83V336.013L305.158 336.926V342.709L308.869 341.819V341.83ZM301.757 372.179L307.864 371.965V358.019C307.864 356.226 306.484 354.783 304.794 354.783C303.105 354.783 301.768 356.226 301.768 357.974V372.179H301.757ZM300.923 344.243V340.556L298.57 340.962V344.626L300.923 344.231V344.243ZM295.202 372.742L299.511 372.528V358.538C299.511 357.376 298.613 356.429 297.512 356.429C296.239 356.429 295.202 357.523 295.202 358.865V372.754V372.742ZM294.196 338.955L291.469 339.609V345.46L294.196 344.84V338.966V338.955ZM290.464 373.385L293.929 373.193V359.067C293.929 358.03 293.138 357.196 292.154 357.196C291.17 357.196 290.464 357.996 290.464 358.977V373.385ZM286.101 374.129L288.561 373.949V359.89C288.561 359.191 288.026 358.628 287.363 358.628C286.668 358.628 286.09 359.225 286.09 359.969V374.14L286.101 374.129ZM285.235 348.459V342.416L283.513 343.081V349.09L285.235 348.448V348.459ZM281.845 374.67L284.304 374.501V361.784C284.304 361.097 283.78 360.544 283.128 360.544C282.422 360.544 281.845 361.153 281.845 361.897V374.682V374.67Z" stroke="white" stroke-width="1.28394" stroke-linecap="round" stroke-linejoin="round"/>
<path d="M439.539 349.733C427.914 348.73 400.837 346.554 374.989 346.013" stroke="white" stroke-width="1.28394" stroke-linecap="round" stroke-linejoin="round"/>
<path d="M445.402 350.251C445.402 350.251 444.868 350.206 443.969 350.127" stroke="white" stroke-width="1.28394" stroke-linecap="round" stroke-linejoin="round"/>
<path d="M366.125 377.082C365.74 377.082 365.355 377.071 364.97 377.06" stroke="white" stroke-width="1.28394" stroke-linecap="round" stroke-linejoin="round"/>
<path d="M445.402 381.85C445.402 381.85 426.367 378.536 370.875 377.194" stroke="white" stroke-width="1.28394" stroke-linecap="round" stroke-linejoin="round"/>
<path d="M370.873 345.462C359.184 345.293 347.945 345.507 338.716 346.341" stroke="white" stroke-width="1.28394" stroke-linecap="round" stroke-linejoin="round"/>
<path d="M445.402 307.378C445.402 307.378 419.811 287.57 392.488 283.083" stroke="white" stroke-width="1.28394" stroke-linecap="round" stroke-linejoin="round"/>
<path d="M690.137 259.899C690.19 254.172 695.238 254.589 695.238 254.589C695.238 254.589 694.211 250.046 699.024 247.486C703.366 245.175 706.991 248.005 706.991 248.005C706.991 248.005 708.477 243.157 711.525 241.365C714.562 239.572 717.033 240.61 717.033 240.61C717.033 240.61 717.471 234.161 723.631 234.003C723.631 234.003 732.807 233.53 733.053 244.251C733.053 244.251 735.384 241.805 738.774 242.819C742.175 243.834 742.645 246.957 742.645 246.957C742.645 246.957 749.062 240.17 755.468 245.344C761.082 249.888 758.676 256.122 758.676 256.122C758.676 256.122 764.226 255.333 766.098 259.899H690.126H690.137Z" stroke="white" stroke-width="1.49793" stroke-linecap="round" stroke-linejoin="round"/>
<path d="M769.861 259.896H779.154" stroke="white" stroke-width="1.49793" stroke-linecap="round" stroke-linejoin="round"/>
<path d="M701.719 243.227H680.79" stroke="white" stroke-width="1.49793" stroke-linecap="round" stroke-linejoin="round"/>
<path d="M115.127 185.899C115.181 180.172 120.228 180.589 120.228 180.589C120.228 180.589 119.202 176.046 124.014 173.486C128.356 171.175 131.981 174.005 131.981 174.005C131.981 174.005 133.468 169.157 136.515 167.365C139.553 165.572 142.023 166.61 142.023 166.61C142.023 166.61 142.461 160.161 148.621 160.003C148.621 160.003 157.797 159.53 158.043 170.251C158.043 170.251 160.374 167.805 163.764 168.819C167.165 169.834 167.636 172.957 167.636 172.957C167.636 172.957 174.052 166.17 180.458 171.344C186.072 175.888 183.666 182.122 183.666 182.122C183.666 182.122 189.206 181.333 191.088 185.899H115.116H115.127Z" stroke="white" stroke-width="1.49793" stroke-linecap="round" stroke-linejoin="round"/>
<path d="M194.852 185.896H204.135" stroke="white" stroke-width="1.49793" stroke-linecap="round" stroke-linejoin="round"/>
<path d="M126.709 169.209H105.77" stroke="white" stroke-width="1.49793" stroke-linecap="round" stroke-linejoin="round"/>
<path d="M151.189 177.665H101.002" stroke="white" stroke-width="1.49793" stroke-linecap="round" stroke-linejoin="round"/>
<path d="M375.961 235.757C375.993 232.172 379.159 232.432 379.159 232.432C379.159 232.432 378.506 229.579 381.533 227.978C384.26 226.524 386.527 228.305 386.527 228.305C386.527 228.305 387.457 225.261 389.371 224.134C391.275 223.007 392.826 223.661 392.826 223.661C392.826 223.661 393.104 219.613 396.964 219.512C396.964 219.512 402.718 219.207 402.878 225.938C402.878 225.938 404.343 224.405 406.471 225.036C408.6 225.679 408.899 227.629 408.899 227.629C408.899 227.629 412.92 223.367 416.941 226.614C420.459 229.467 418.952 233.367 418.952 233.367C418.952 233.367 422.427 232.871 423.604 235.735H375.94L375.961 235.757Z" stroke="white" stroke-width="1.28394" stroke-linecap="round" stroke-linejoin="round"/>
<path d="M428.887 235.281H434.715" stroke="white" stroke-width="1.49793" stroke-linecap="round" stroke-linejoin="round"/>
<path d="M424.494 216.999H411.372" stroke="white" stroke-width="1.49793" stroke-linecap="round" stroke-linejoin="round"/>
<path d="M372.775 236.322H370.999" stroke="white" stroke-width="1.49793" stroke-linecap="round" stroke-linejoin="round"/>
<path d="M227.035 208.384H229.848V188.441C229.848 188.441 235.034 179.23 236.499 175.916C237.879 172.816 240.221 162.996 240.221 162.996V150.742C240.221 150.742 243.611 139.445 245.557 129.502C248.177 116.143 248.904 99.4236 249.054 87.4735C249.161 78.4207 249.257 72.1074 249.257 72.1074H250.017C250.017 72.1074 250.113 78.4094 250.22 87.4735C250.37 99.4124 251.097 116.143 253.717 129.502C255.663 139.445 259.053 150.742 259.053 150.742V162.996H259.043C259.043 162.996 260.925 172.646 262.155 175.713C263.502 179.072 268.379 188.43 268.379 188.43V208.373H272.229V249.375H269.277V359.305H228.96V249.375H226.008V208.373H227.046L227.035 208.384ZM245.097 192.015C243.59 192.015 242.37 193.3 242.37 194.889V204.359H247.835V194.889C247.835 193.3 246.616 192.015 245.108 192.015H245.097ZM253.118 192.015C251.61 192.015 250.391 193.3 250.391 194.889V204.359H255.856V194.889C255.856 193.3 254.637 192.015 253.129 192.015H253.118ZM263.876 194.889C263.876 193.3 262.657 192.015 261.149 192.015C259.641 192.015 258.422 193.3 258.422 194.889V204.359H263.887V194.889H263.876ZM258.048 352.316H262.026V306.725H258.048V352.316ZM258.048 301.065H262.026V255.474H258.048V301.065ZM250.765 352.316H254.744V306.725H250.765V352.316ZM250.765 301.065H254.744V255.474H250.765V301.065ZM243.483 352.316H247.461V306.725H243.483V352.316ZM243.483 301.065H247.461V255.474H243.483V301.065ZM236.2 352.316H240.178V306.725H236.2V352.316ZM236.2 301.065H240.178V255.474H236.2V301.065ZM249.108 245.982C257.064 245.982 263.502 239.184 263.502 230.808C263.502 222.431 257.054 215.633 249.108 215.633C241.162 215.633 234.713 222.431 234.713 230.808C234.713 239.184 241.162 245.982 249.108 245.982ZM234.339 204.359H239.804V194.889C239.804 193.3 238.585 192.015 237.077 192.015C235.569 192.015 234.35 193.3 234.35 194.889V204.359H234.339Z" stroke="white" stroke-width="1.28394" stroke-linecap="round" stroke-linejoin="round"/>
<path d="M250.379 236.128V223.806" stroke="white" stroke-width="1.49793" stroke-linecap="round" stroke-linejoin="round"/>
<path d="M244.743 236.132H250.379" stroke="white" stroke-width="1.49793" stroke-linecap="round" stroke-linejoin="round"/>
<path d="M256.393 155.407C256.393 154.809 255.933 154.324 255.366 154.324H254.82C254.254 154.324 253.794 154.809 253.794 155.407V160.198H256.382V155.407H256.393Z" stroke="white" stroke-width="1.28394" stroke-linecap="round" stroke-linejoin="round"/>
<path d="M250.842 155.407C250.842 154.809 250.382 154.324 249.815 154.324H249.27C248.703 154.324 248.243 154.809 248.243 155.407V160.198H250.831V155.407H250.842Z" stroke="white" stroke-width="1.28394" stroke-linecap="round" stroke-linejoin="round"/>
<path d="M245.291 155.407C245.291 154.809 244.831 154.324 244.264 154.324H243.719C243.152 154.324 242.692 154.809 242.692 155.407V160.198H245.28V155.407H245.291Z" stroke="white" stroke-width="1.28394" stroke-linecap="round" stroke-linejoin="round"/>
<path d="M259.043 150.743H244.745" stroke="white" stroke-width="1.28394" stroke-linecap="round" stroke-linejoin="round"/>
<path d="M240.223 162.996H253.805" stroke="white" stroke-width="1.28394" stroke-linecap="round" stroke-linejoin="round"/>
<path d="M256.368 162.996H257.182" stroke="white" stroke-width="1.28394" stroke-linecap="round" stroke-linejoin="round"/>
<path d="M241.954 150.743H242.777" stroke="white" stroke-width="1.28394" stroke-linecap="round" stroke-linejoin="round"/>
<path d="M266.068 188.439H263.106" stroke="white" stroke-width="1.28394" stroke-linecap="round" stroke-linejoin="round"/>
<path d="M260.412 188.439H234.34" stroke="white" stroke-width="1.28394" stroke-linecap="round" stroke-linejoin="round"/>
<path d="M232.287 208.225H264.594" stroke="white" stroke-width="1.28394" stroke-linecap="round" stroke-linejoin="round"/>
<path d="M238.8 249.464H269.268" stroke="white" stroke-width="1.28394" stroke-linecap="round" stroke-linejoin="round"/>
<path d="M234.713 249.464H232.574" stroke="white" stroke-width="1.28394" stroke-linecap="round" stroke-linejoin="round"/>
<path d="M223.922 359.312H274.303V374.667H223.922V359.312Z" stroke="white" stroke-width="1.28394" stroke-linecap="round" stroke-linejoin="round"/>
<path d="M221.068 374.672H277.148V397.061H221.068V374.672Z" stroke="white" stroke-width="1.28394" stroke-linecap="round" stroke-linejoin="round"/>
<path d="M225.997 361.707H227.088" stroke="white" stroke-width="1.28394" stroke-linecap="round" stroke-linejoin="round"/>
<path d="M229.975 361.707H270.014" stroke="white" stroke-width="1.28394" stroke-linecap="round" stroke-linejoin="round"/>
<path d="M248.511 365.946H269.578" stroke="white" stroke-width="1.28394" stroke-linecap="round" stroke-linejoin="round"/>
<path d="M228.254 370.386H249.332" stroke="white" stroke-width="1.28394" stroke-linecap="round" stroke-linejoin="round"/>
<path d="M236.479 389.581H257.547" stroke="white" stroke-width="1.28394" stroke-linecap="round" stroke-linejoin="round"/>
<path d="M251.48 378.401H272.559" stroke="white" stroke-width="1.28394" stroke-linecap="round" stroke-linejoin="round"/>
<path d="M231.557 378.401H238.797" stroke="white" stroke-width="1.28394" stroke-linecap="round" stroke-linejoin="round"/>
<path d="M169.567 210.742L176.347 391.922L179.117 397.063H161.985L164.701 391.922L169.567 210.742Z" stroke="white" stroke-width="1.28394" stroke-linecap="round" stroke-linejoin="round"/>
<path d="M159.43 313.783C158.874 314.301 158.339 314.853 157.847 315.44C157.441 315.936 157.045 316.443 156.692 316.984C154.756 319.882 153.623 323.422 153.623 327.232C153.623 337.085 161.205 345.078 170.552 345.078C179.898 345.078 187.48 337.085 187.48 327.232C187.48 317.379 179.898 309.386 170.552 309.386C167.867 309.386 165.333 310.04 163.076 311.212" stroke="white" stroke-width="1.28394" stroke-linecap="round" stroke-linejoin="round"/>
<path d="M159.911 271.043C159.055 272.779 158.574 274.752 158.574 276.838C158.574 283.805 163.932 289.453 170.541 289.453C177.15 289.453 182.508 283.805 182.508 276.838C182.508 269.871 177.15 264.223 170.541 264.223C167.953 264.223 165.547 265.091 163.59 266.568" stroke="white" stroke-width="1.28394" stroke-linecap="round" stroke-linejoin="round"/>
<path d="M161.545 312.157L161.19 312.452" stroke="white" stroke-width="1.28394" stroke-linecap="round" stroke-linejoin="round"/>
<path d="M161.984 268.17L161.321 268.982" stroke="white" stroke-width="1.28394" stroke-linecap="round" stroke-linejoin="round"/>
<path d="M197.007 262.507L201.895 393.338L203.895 397.047H191.532L193.489 393.35L197.007 262.507Z" stroke="white" stroke-width="1.28394" stroke-linecap="round" stroke-linejoin="round"/>
<path d="M213.519 300.647L215.968 394.388L216.963 397.049H210.782L211.765 394.4L213.519 300.647Z" stroke="white" stroke-width="1.28394" stroke-linecap="round" stroke-linejoin="round"/>
<path d="M189.683 337.142C189.276 337.514 188.902 337.908 188.538 338.337C188.239 338.686 187.961 339.069 187.704 339.453C186.303 341.55 185.491 344.097 185.491 346.86C185.491 353.973 190.966 359.745 197.714 359.745C204.462 359.745 209.938 353.973 209.938 346.86C209.938 339.746 204.462 333.974 197.714 333.974C195.778 333.974 193.939 334.447 192.313 335.293" stroke="white" stroke-width="1.28394" stroke-linecap="round" stroke-linejoin="round"/>
<path d="M191.211 335.971L190.954 336.185" stroke="white" stroke-width="1.28394" stroke-linecap="round" stroke-linejoin="round"/>
<path d="M171.887 353.188H167.876" stroke="white" stroke-width="1.28394" stroke-linecap="round" stroke-linejoin="round"/>
<path d="M175.617 356.421H168.858" stroke="white" stroke-width="1.28394" stroke-linecap="round" stroke-linejoin="round"/>
<path d="M196.869 381.819H191.533" stroke="white" stroke-width="1.28394" stroke-linecap="round" stroke-linejoin="round"/>
<path d="M198.838 384.526H196.87" stroke="white" stroke-width="1.28394" stroke-linecap="round" stroke-linejoin="round"/>
<path d="M586.908 213.131C586.908 213.131 571.926 214.179 548.495 213.131" stroke="white" stroke-width="1.49793" stroke-linecap="round" stroke-linejoin="round"/>
<path d="M545.723 213.227C545.723 213.227 542.6 213.249 540.525 213.024" stroke="white" stroke-width="1.49793" stroke-linecap="round" stroke-linejoin="round"/>
<path d="M579.764 228.779H573.935" stroke="white" stroke-width="1.49793" stroke-linecap="round" stroke-linejoin="round"/>
<path d="M584.801 317.869H568.899" stroke="white" stroke-width="1.49793" stroke-linecap="round" stroke-linejoin="round"/>
<path d="M554.836 318.179H538.944" stroke="white" stroke-width="1.49793" stroke-linecap="round" stroke-linejoin="round"/>
<path d="M342.234 377.195H333.369" stroke="white" stroke-width="1.28394" stroke-linecap="round" stroke-linejoin="round"/>
<path d="M336.33 379.758H323.871" stroke="white" stroke-width="1.28394" stroke-linecap="round" stroke-linejoin="round"/>
<path d="M364.854 393.677H342.332" stroke="white" stroke-width="1.28394" stroke-linecap="round" stroke-linejoin="round"/>
<path d="M627.234 252.912C627.234 252.912 623.577 251.66 622.005 254.558C622.005 254.558 620.657 250.995 616.904 252.416" stroke="white" stroke-width="1.28394" stroke-linecap="round" stroke-linejoin="round"/>
<path d="M620.68 247.05C620.68 247.05 617.022 245.788 615.45 248.696C615.45 248.696 614.103 245.134 610.349 246.554" stroke="white" stroke-width="1.28394" stroke-linecap="round" stroke-linejoin="round"/>
<path d="M596.66 191.596C596.66 191.596 593.003 190.345 591.431 193.242C591.431 193.242 590.083 189.68 586.33 191.1" stroke="white" stroke-width="1.28394" stroke-linecap="round" stroke-linejoin="round"/>
<path d="M463.252 183.556C463.252 183.556 459.595 182.294 458.022 185.202C458.022 185.202 456.675 181.64 452.921 183.06" stroke="white" stroke-width="1.28394" stroke-linecap="round" stroke-linejoin="round"/>
<path d="M322.332 244.831C322.332 244.831 318.675 243.579 317.103 246.477C317.103 246.477 315.755 242.914 312.001 244.335" stroke="white" stroke-width="1.28394" stroke-linecap="round" stroke-linejoin="round"/>
<path d="M456.693 177.699C456.693 177.699 453.036 176.436 451.464 179.345C451.464 179.345 450.116 175.782 446.363 177.203" stroke="white" stroke-width="1.28394" stroke-linecap="round" stroke-linejoin="round"/>
<path d="M365.982 270.184C365.982 270.184 362.325 268.921 360.753 271.83C360.753 271.83 359.406 268.268 355.652 269.688" stroke="white" stroke-width="1.28394" stroke-linecap="round" stroke-linejoin="round"/>
<path d="M493.43 171.418C493.43 171.418 489.772 170.166 488.2 173.063C488.2 173.063 486.853 169.501 483.099 170.921" stroke="white" stroke-width="1.28394" stroke-linecap="round" stroke-linejoin="round"/>
<path d="M806.105 405.694H64.2611" stroke="white" stroke-width="1.28394" stroke-linecap="round" stroke-linejoin="round"/>
<path d="M778.736 401.602H143.374" stroke="white" stroke-width="1.28394" stroke-linecap="round" stroke-linejoin="round"/>
<path d="M138.426 401.602H73.972" stroke="white" stroke-width="1.28394" stroke-linecap="round" stroke-linejoin="round"/>
<path d="M223.551 397.058H61.7906" stroke="white" stroke-width="1.49793" stroke-linecap="round" stroke-linejoin="round"/>
<path d="M338.892 119.647C337.673 119.838 336.539 119.309 336.08 118.339C335.62 117.37 335.962 116.186 336.903 115.419L337.085 115.273L333.117 106.896C333.01 106.682 333.032 106.423 333.16 106.197C333.288 105.972 333.513 105.803 333.78 105.724L337.395 104.698C337.737 104.596 338.101 104.675 338.315 104.901L344.475 111.113L356.965 107.55L349.704 99.5007C349.511 99.2978 349.469 99.0046 349.576 98.7341C349.683 98.4635 349.929 98.2493 350.228 98.1591L353.939 97.043C354.206 96.9641 354.484 96.9979 354.698 97.1107L367.799 104.472L374.611 102.533C377.327 101.755 380.161 101.631 382.813 102.15L388.716 103.311C389.529 103.469 390.128 104.044 390.267 104.777C390.406 105.521 390.053 106.299 389.358 106.806L387.807 107.933C386.406 108.948 384.866 109.805 383.241 110.459L380.92 111.394C379.263 112.037 377.584 112.601 375.873 113.074C374.686 113.412 373.52 113.706 372.579 113.897L365.243 115.374L354.933 128.981C354.752 129.218 354.463 129.365 354.163 129.387L350.346 129.624C350.046 129.647 349.768 129.534 349.597 129.32C349.426 129.105 349.394 128.824 349.511 128.564L354.495 117.11L338.903 119.602L338.892 119.647Z" stroke="white" stroke-width="1.28394" stroke-linecap="round" stroke-linejoin="round"/>
<path d="M381.906 103.218C381.906 103.218 380.794 104.841 377.126 106.532" stroke="white" stroke-width="1.28394" stroke-linecap="round" stroke-linejoin="round"/>
<path d="M331.492 119.153L329.685 119.378" stroke="white" stroke-width="1.49793" stroke-linecap="round" stroke-linejoin="round"/>
<path d="M329.162 117.066L318.789 118.622" stroke="white" stroke-width="1.49793" stroke-linecap="round" stroke-linejoin="round"/>
<path d="M338.486 123.209L330.808 124.404" stroke="white" stroke-width="1.49793" stroke-linecap="round" stroke-linejoin="round"/>
<g clip-path="url(#clip0_5394_42407)">
<path d="M105.089 390.388L76.0275 361.893L75.7773 338.327L82.6747 338.259L82.8722 358.456L109.924 358.19L109.727 337.993L116.622 337.924L116.819 358.121L143.869 357.855L143.671 337.658L150.569 337.59L150.779 361.155L122.281 390.217L117.356 385.389L137.532 364.816L89.3403 365.29L109.914 385.463L105.087 390.388H105.089ZM77.7868 361.139L105.063 387.886L107.412 385.49L85.0502 363.562L141.786 363.004L119.858 385.366L122.255 387.718L149.002 360.441L148.812 339.378L145.454 339.412L145.646 359.069L145.109 359.615L115.063 359.91L114.865 339.713L111.507 339.744L111.705 359.941L81.6555 360.236L81.1077 359.696L80.9155 340.044L77.5603 340.079L77.7841 361.142L77.7868 361.139Z" fill="white" fill-opacity="0.88"/>
<path d="M143.896 283.468H124.786L113.425 272.109L102.066 283.468H82.957L113.428 253L143.896 283.468ZM125.521 281.698H139.624L113.428 255.502L87.2313 281.698H101.337L113.428 269.605L125.521 281.698Z" fill="white" fill-opacity="0.88"/>
<path d="M128.88 333.659H97.9727V307.455H128.88V333.659ZM99.7424 331.89H127.113V309.225H99.7424V331.89Z" fill="white" fill-opacity="0.88"/>
<path d="M145.698 327.374H81.1562V322.201H145.698V327.374ZM82.926 325.604H143.928V323.971H82.926V325.604Z" fill="white" fill-opacity="0.88"/>
<path d="M145.698 336.484H81.1562V331.889H145.698V336.484ZM82.926 334.715H143.928V333.658H82.926V334.715Z" fill="white" fill-opacity="0.88"/>
<path d="M126.064 397.83H100.787V337.6H126.064V397.83ZM102.557 396.06H124.297V339.367H102.557V396.06Z" fill="white" fill-opacity="0.88"/>
<path d="M153.741 339.371H73.1113V334.718H153.741V339.371ZM74.8811 337.602H151.971V336.485H74.8811V337.602Z" fill="white" fill-opacity="0.88"/>
<path d="M116.876 387.243H109.979V359.922H116.876V387.243ZM111.748 385.473H115.106V361.692H111.748V385.473Z" fill="white" fill-opacity="0.88"/>
<path d="M150.825 336.485H143.928V307.455H150.825V336.485ZM145.697 334.715H149.055V309.225H145.697V334.715Z" fill="white" fill-opacity="0.88"/>
<path d="M82.926 336.485H76.0312V307.455H82.926V336.485ZM77.7984 334.715H81.1562V309.225H77.7984V334.715Z" fill="white" fill-opacity="0.88"/>
<path d="M95.8017 336.485H88.9043V307.455H95.8017V336.485ZM90.6767 334.715H94.0345V309.225H90.6767V334.715Z" fill="white" fill-opacity="0.88"/>
<path d="M137.942 336.485H131.047V307.455H137.942V336.485ZM132.817 334.715H136.174V309.225H132.817V334.715Z" fill="white" fill-opacity="0.88"/>
<path d="M150.824 309.226H76.0273V304.678H150.824V309.226ZM77.7971 307.456H149.054V306.448H77.7971V307.456Z" fill="white" fill-opacity="0.88"/>
<path d="M147.972 306.446H78.8799C77.6026 306.446 47.4612 306.343 37.6906 297.36L33.7402 293.728L38.6466 295.898C41.9386 297.355 45.357 298.095 48.8044 298.095C63.2285 298.095 74.1605 285.243 74.2685 285.111L74.5345 284.795H152.318L152.584 285.111C152.692 285.24 163.645 298.095 178.048 298.095C181.495 298.095 184.913 297.355 188.205 295.898L193.112 293.728L189.161 297.36C179.391 306.343 149.249 306.446 147.972 306.446ZM44.7987 299.554C57.1739 304.607 78.6245 304.679 78.8799 304.679H147.972C148.23 304.679 169.681 304.607 182.053 299.554C180.726 299.762 179.388 299.864 178.045 299.864C163.926 299.864 153.35 288.658 151.498 286.565H75.3509C73.4969 288.658 62.9204 299.864 48.8044 299.864C47.4612 299.864 46.1234 299.762 44.796 299.554H44.7987Z" fill="white" fill-opacity="0.88"/>
<path d="M152.778 286.564H74.0781V281.697H152.778V286.564ZM75.8453 284.794H151.005V283.467H75.8453V284.794Z" fill="white" fill-opacity="0.88"/>
<path d="M127.29 283.468H99.5664L113.427 269.607L127.29 283.468ZM103.838 281.698H123.019L113.427 272.109L103.838 281.698Z" fill="white" fill-opacity="0.88"/>
</g>
<path d="M69.0541 90.6522C67.6744 90.6522 66.8114 89.1597 67.4995 87.9639L91.7097 45.8989C92.0298 45.3428 92.6226 45 93.2643 45L98.1377 45C99.5074 45 100.372 46.4732 99.7033 47.6687L76.1905 89.7337C75.8735 90.3009 75.2746 90.6522 74.6248 90.6522L69.0541 90.6522Z" fill="white"/>
<mask id="mask0_5394_42407" style="mask-type:alpha" maskUnits="userSpaceOnUse" x="67" y="45" width="33" height="46">
<path d="M69.0521 90.6561C67.6725 90.6561 66.8094 89.1636 67.4976 87.9678L91.7078 45.9028C92.0279 45.3467 92.6206 45.0039 93.2623 45.0039L98.1358 45.0039C99.5054 45.0039 100.37 46.4771 99.7014 47.6726L76.1885 89.7377C75.8715 90.3048 75.2726 90.6561 74.6229 90.6561L69.0521 90.6561Z" fill="white"/>
</mask>
<g mask="url(#mask0_5394_42407)">
<g opacity="0.6" style="mix-blend-mode:multiply">
<path d="M81.4668 61.1463L92.2873 61.4655L101.653 45.0039L90.4348 45.0039L81.4668 61.1463Z" fill="url(#paint1_linear_5394_42407)"/>
</g>
</g>
<path d="M97.4797 51.386C97.1461 51.8791 96.5896 52.1744 95.9943 52.1744L46.4873 52.1744C45.9227 52.1744 45.3911 51.9086 45.0524 51.457L42.362 47.8698C41.4752 46.6874 42.3188 45 43.7969 45L98.4219 45C99.8601 45 100.713 46.6078 99.9073 47.7989L97.4797 51.386Z" fill="white"/>
<path d="M74.7584 59.3478C76.1381 59.3478 77.0011 60.8403 76.313 62.0361L52.1028 104.101C51.7827 104.657 51.1899 105 50.5482 105L45.6748 105C44.3051 105 43.4409 103.527 44.1092 102.331L67.622 60.2663C67.939 59.6991 68.5379 59.3478 69.1877 59.3478L74.7584 59.3478Z" fill="white"/>
<mask id="mask1_5394_42407" style="mask-type:alpha" maskUnits="userSpaceOnUse" x="43" y="59" width="34" height="46">
<path d="M74.7565 59.3478C76.1361 59.3478 76.9992 60.8403 76.311 62.0361L52.1008 104.101C51.7807 104.657 51.188 105 50.5463 105L45.6728 105C44.3032 105 43.4389 103.527 44.1072 102.331L67.6201 60.2663C67.9371 59.6991 68.536 59.3478 69.1857 59.3478L74.7565 59.3478Z" fill="white"/>
</mask>
<g mask="url(#mask1_5394_42407)">
<g opacity="0.6" style="mix-blend-mode:multiply">
<path d="M62.3438 88.8576L51.5233 88.5384L42.1579 105L53.3758 105L62.3438 88.8576Z" fill="url(#paint2_linear_5394_42407)"/>
</g>
</g>
<path d="M46.3278 98.614C46.6614 98.1209 47.218 97.8256 47.8132 97.8256L94.917 97.8256C95.4816 97.8256 96.0132 98.0914 96.3519 98.543L99.0423 102.13C99.9291 103.313 99.0854 105 97.6074 105L45.3857 105C43.9475 105 43.0942 103.392 43.9002 102.201L46.3278 98.614Z" fill="white"/>
<path fill-rule="evenodd" clip-rule="evenodd" d="M700.272 494.116L687.394 494.116L677.738 457.275C677.279 455.58 676.306 454.082 674.874 453.376C671.302 451.601 667.365 450.189 663.07 449.476L663.07 448.058L683.816 448.058C686.679 448.058 688.826 450.189 689.184 452.663L694.194 479.238L707.066 448.058L719.586 448.058L700.272 494.116ZM726.739 494.116L714.577 494.116L724.592 448.058L736.754 448.058L726.739 494.116ZM752.492 460.822C752.85 458.341 754.997 456.923 757.502 456.923C761.439 456.567 765.727 457.279 769.306 459.047L771.454 449.131C767.875 447.712 763.938 447 760.365 447C748.561 447 739.972 453.38 739.972 462.234C739.972 468.97 746.056 472.507 750.351 474.637C754.997 476.762 756.786 478.18 756.428 480.305C756.428 483.491 752.849 484.91 749.277 484.91C744.982 484.91 740.687 483.847 736.757 482.073L734.61 491.996C738.904 493.764 743.551 494.476 747.845 494.476C761.081 494.826 769.306 488.453 769.306 478.886C769.306 466.839 752.492 466.133 752.492 460.822ZM811.868 494.116L802.211 448.058L791.838 448.058C789.691 448.058 787.543 449.477 786.828 451.601L768.946 494.116L781.466 494.116L783.965 487.386L799.348 487.386L800.779 494.116L811.868 494.116ZM793.631 460.455L797.203 477.814L787.189 477.814L793.631 460.455Z" fill="white"/>
<defs>
<linearGradient id="paint0_linear_5394_42407" x1="0" y1="540" x2="177.666" y2="-169.59" gradientUnits="userSpaceOnUse">
<stop stop-color="white" stop-opacity="0.5"/>
<stop offset="0.390033" stop-color="white" stop-opacity="0.33"/>
<stop offset="1" stop-color="white" stop-opacity="0"/>
</linearGradient>
<linearGradient id="paint1_linear_5394_42407" x1="90.7667" y1="45.0039" x2="90.7667" y2="61.4655" gradientUnits="userSpaceOnUse">
<stop stop-color="#1A1328"/>
<stop offset="0.46875" stop-color="#2C2736" stop-opacity="0.86"/>
<stop offset="1" stop-color="white" stop-opacity="0"/>
</linearGradient>
<linearGradient id="paint2_linear_5394_42407" x1="53.0438" y1="105" x2="53.0438" y2="88.5384" gradientUnits="userSpaceOnUse">
<stop stop-color="#1A1328"/>
<stop offset="0.46875" stop-color="#2C2736" stop-opacity="0.86"/>
<stop offset="1" stop-color="white" stop-opacity="0"/>
</linearGradient>
<clipPath id="clip0_5394_42407">
<rect width="159.372" height="144.832" fill="white" transform="translate(33.7402 253)"/>
</clipPath>
</defs>
</svg>
